<?xml version="1.0" encoding="UTF-8" standalone="no"?>
<svg
   version="1.1"
   width="585"
   height="182"
   style="fill:#221f1f"
   id="svg1936"
   xmlns="http://www.w3.org/2000/svg"
   xmlns:svg="http://www.w3.org/2000/svg">
  <defs
     id="defs367" />
  <g
     id="g12"
     transform="matrix(0.32484787,0,0,-0.32484787,-701.53448,1377.3976)">
    <path
       id="path28"
       style="fill:#000000;fill-opacity:1;fill-rule:evenodd;stroke:none"
       d="m 2266.62,3791.32 c -1.78,-1.6 -4.36,-1.7 -6.37,-0.62 -8.96,7.44 -10.56,10.87 -15.45,17.96 -14.8,-15.07 -25.28,-19.6 -44.45,-19.6 -22.69,0 -40.35,14.01 -40.35,42.02 0,21.88 11.85,36.77 28.75,44.06 14.63,6.43 35.06,7.59 50.69,9.34 v 3.5 c 0,6.43 0.51,14.01 -3.28,19.56 -3.28,4.96 -9.58,7 -15.13,7 -10.28,0 -19.42,-5.27 -21.67,-16.18 -0.46,-2.44 -2.24,-4.84 -4.68,-4.97 l -26.13,2.83 c -2.21,0.51 -4.66,2.27 -4.02,5.64 5.92,31.26 33.83,41.01 59.21,41.27 h 2 c 12.99,-0.16 29.58,-3.72 39.68,-13.42 13.11,-12.25 11.85,-28.59 11.85,-46.4 v -41.99 c 0,-12.64 5.25,-18.18 10.17,-24.98 1.72,-2.46 2.11,-5.38 -0.08,-7.17 -5.51,-4.62 -15.3,-13.12 -20.68,-17.9 z m -27.18,65.73 c 0,-10.5 0.25,-19.25 -5.05,-28.59 -4.28,-7.59 -11.09,-12.26 -18.66,-12.26 -10.33,0 -16.39,7.88 -16.39,19.55 0,22.96 20.6,27.14 40.1,27.14 v -5.84 m 380.58,-65.73 c -1.78,-1.6 -4.35,-1.7 -6.36,-0.62 -8.96,7.44 -10.56,10.87 -15.46,17.96 -14.79,-15.07 -25.27,-19.6 -44.44,-19.6 -22.7,0 -40.35,14.01 -40.35,42.02 0,21.88 11.85,36.77 28.75,44.06 14.62,6.43 35.05,7.59 50.69,9.34 v 3.5 c 0,6.43 0.51,14.01 -3.28,19.56 -3.28,4.96 -9.58,7 -15.13,7 -10.29,0 -19.42,-5.27 -21.67,-16.18 -0.47,-2.44 -2.24,-4.84 -4.68,-4.97 l -26.13,2.83 c -2.21,0.51 -4.66,2.27 -4.03,5.64 5.93,31.26 33.85,41.01 59.22,41.27 h 2 c 12.99,-0.16 29.57,-3.72 39.67,-13.42 13.12,-12.25 11.85,-28.59 11.85,-46.4 v -41.99 c 0,-12.64 5.26,-18.18 10.18,-24.98 1.72,-2.46 2.11,-5.38 -0.09,-7.17 -5.5,-4.62 -15.29,-13.12 -20.67,-17.9 z m -27.17,65.73 c 0,-10.5 0.25,-19.25 -5.05,-28.59 -4.28,-7.59 -11.1,-12.26 -18.66,-12.26 -10.34,0 -16.39,7.88 -16.39,19.55 0,22.96 20.59,27.14 40.1,27.14 v -5.84 m 359.2,-66.07 h -26.86 c -2.69,0.17 -4.83,2.31 -4.83,4.97 l -0.05,138.41 c 0.23,2.54 2.46,4.52 5.18,4.52 h 25.01 c 2.35,-0.12 4.29,-1.72 4.79,-3.87 v -21.16 h 0.5 c 7.56,18.93 18.12,27.95 36.74,27.95 12.08,0 23.91,-4.36 31.46,-16.31 7.04,-11.06 7.04,-29.69 7.04,-43.09 v -87.07 c -0.3,-2.45 -2.5,-4.35 -5.16,-4.35 h -27.03 c -2.49,0.16 -4.5,1.99 -4.79,4.35 v 75.13 c 0,15.14 1.76,37.27 -16.86,37.27 -6.55,0 -12.59,-4.36 -15.61,-11.06 -3.78,-8.45 -4.28,-16.88 -4.28,-26.21 v -74.5 c -0.05,-2.76 -2.37,-4.98 -5.25,-4.98 m -113.3,122.57 c -19.87,0 -21.13,-27.07 -21.13,-43.96 0,-16.89 -0.25,-52.99 20.89,-52.99 20.89,0 21.89,29.12 21.89,46.87 0,11.65 -0.5,25.63 -4.03,36.69 -3.01,9.61 -9.06,13.39 -17.62,13.39 z m -0.24,28.25 c 40.01,0 61.65,-34.36 61.65,-78.03 0,-42.22 -23.9,-75.71 -61.65,-75.71 -39.26,0 -60.65,34.37 -60.65,77.16 0,43.1 21.64,76.58 60.65,76.58 m -498.26,-150.82 h -26.96 c -2.57,0.16 -4.61,2.09 -4.82,4.56 l 0.02,138.36 c 0,2.77 2.33,4.98 5.2,4.98 h 25.11 c 2.62,-0.13 4.73,-2.11 4.9,-4.65 v -18.05 h 0.5 c 6.54,17.46 18.88,25.62 35.48,25.62 16.86,0 27.43,-8.16 34.98,-25.62 6.55,17.46 21.39,25.62 37.25,25.62 11.32,0 23.65,-4.66 31.2,-15.14 8.55,-11.65 6.8,-28.53 6.8,-43.39 l -0.02,-87.31 c 0,-2.76 -2.33,-4.98 -5.21,-4.98 h -26.92 c -2.71,0.17 -4.83,2.31 -4.83,4.97 l -0.02,73.35 c 0,5.82 0.51,20.38 -0.75,25.91 -2.02,9.32 -8.05,11.94 -15.85,11.94 -6.55,0 -13.34,-4.36 -16.11,-11.35 -2.77,-7 -2.52,-18.63 -2.52,-26.5 v -73.34 c 0,-2.76 -2.32,-4.98 -5.2,-4.98 h -26.93 c -2.7,0.17 -4.84,2.31 -4.84,4.97 l -0.02,73.35 c 0,15.43 2.51,38.14 -16.61,38.14 -19.38,0 -18.62,-22.12 -18.62,-38.14 l -0.01,-73.34 c 0,-2.76 -2.33,-4.98 -5.2,-4.98 m 323.24,123.49 v 19.76 c 0.02,3.02 2.28,5.02 5.01,5.01 l 88.62,0.01 c 2.83,0 5.1,-2.06 5.1,-4.98 v -16.96 c -0.02,-2.85 -2.42,-6.56 -6.67,-12.45 l -45.9,-65.54 c 17.04,0.4 35.06,-2.15 50.55,-10.85 3.48,-1.97 4.42,-4.87 4.69,-7.72 v -21.1 c 0,-2.9 -3.18,-6.27 -6.52,-4.52 -27.28,14.29 -63.47,15.85 -93.63,-0.17 -3.08,-1.64 -6.31,1.68 -6.31,4.59 v 20.05 c 0,3.21 0.07,8.7 3.3,13.59 l 53.18,76.29 -46.3,0.01 c -2.83,0 -5.1,2.01 -5.12,4.98 m 57.95,-152.57 c -6.47,8.29 -42.79,3.93 -59.1,1.97 -4.95,-0.59 -5.71,3.73 -1.26,6.86 28.97,20.34 76.44,14.47 81.96,7.65 5.55,-6.87 -1.47,-54.46 -28.61,-77.17 -4.17,-3.49 -8.15,-1.63 -6.29,2.98 6.11,15.26 19.79,49.42 13.3,57.71 m -21.06,-24.04 c -50.61,-37.36 -123.98,-57.22 -187.16,-57.22 -88.55,0 -168.29,32.74 -228.63,87.22 -4.73,4.28 -0.51,10.12 5.19,6.81 65.1,-37.88 145.61,-60.7 228.76,-60.7 56.09,0 117.75,11.64 174.48,35.71 8.56,3.63 15.73,-5.64 7.36,-11.82" />
    <path
       id="path46"
       style="fill:#f77913;fill-opacity:1;fill-rule:nonzero;stroke:none"
       d="m 3907.9,3806.51 c -13.36,-0.23 -24.51,2.32 -37.69,10.09 l -8.82,-17.46 c 13.49,-8.66 26.28,-11.38 47.87,-11.38 16.87,0 32.24,6.4 41.13,16.15 6.73,7.38 9.61,16.75 9.61,26.48 0,21.4 -12.16,31.76 -31.64,41.41 l -18.86,9.1 c -9.88,4.92 -16.91,11.05 -16.91,23.46 0,8.34 7.9,16.7 24.82,16.7 10.47,0.28 25.57,-2.07 38.01,-8.92 v 20.32 c -10.06,5.25 -22.56,7.94 -38.74,7.75 -34.88,0 -46.74,-21.29 -46.74,-38.13 0,-22.74 12.03,-32.24 27.2,-40.58 l 20.09,-9.3 c 12.07,-6.96 18.82,-13.46 18.82,-23.66 0,-15.15 -13.57,-22.03 -28.15,-22.03 m -98.34,133.72 c 15.33,0 28.96,-2.78 39.66,-9.46 v -21.15 c -11.92,7.19 -23.28,10.76 -39.95,10.76 -27.7,0 -46.37,-24.61 -46.37,-56.01 0,-32.01 17.07,-56.41 45.68,-56.41 16.17,0 26.81,2.77 38.3,10.98 l 7.32,-16.77 c -12.9,-8.99 -30.38,-14.37 -46.9,-14.37 -44.05,0 -67.29,34.17 -67.29,75.71 0,38.88 24.78,76.72 69.55,76.72 m -106.07,113.01 c 3.87,0 12.37,-1.65 12.28,-1.63 13.25,-1.96 25.98,0.64 35.72,10.38 7.09,7.09 11.98,15.69 12.01,25.02 0.01,2.01 -0.2,3.84 -0.54,5.58 -2.2,5.54 -3.42,11.59 -3.42,17.93 0,6.78 1.39,13.22 3.9,19.08 3.23,11.17 -0.63,18.89 -7.74,27.81 -6.52,6.52 -16.07,9.86 -26.09,8.97 -3.46,-1.06 -7.13,-1.63 -10.93,-1.63 -20.61,0 -37.31,16.7 -37.31,37.3 0,20.61 16.7,37.31 37.31,37.31 20.59,0 37.29,-16.7 37.29,-37.31 0,-4.2 -0.69,-8.24 -1.97,-12.01 -1.88,-13.8 1.59,-18.56 6.8,-26.4 6.96,-6.96 16,-12.81 26.25,-9.4 6.34,3.05 13.45,4.77 20.97,4.77 26.78,0 48.48,-21.71 48.48,-48.49 0,-26.77 -21.7,-48.48 -48.48,-48.48 -5.43,0 -10.66,0.9 -15.54,2.55 2.25,-0.75 -6.26,1.06 -6.82,1.12 -11.64,1.26 -18.36,-2.61 -27.34,-11.6 -8.31,-8.31 -10.58,-17.26 -10.21,-30.37 0.18,-6.08 2.04,-10.61 2.04,-17.15 0,-25.77 -20.89,-46.66 -46.66,-46.66 -25.77,0 -46.65,20.89 -46.65,46.66 0,25.77 20.88,46.65 46.65,46.65 z m 15.14,131.59 c 9.54,0 17.28,7.74 17.28,17.29 0,9.54 -7.74,17.28 -17.28,17.28 -9.55,0 -17.29,-7.74 -17.29,-17.28 0,-9.55 7.74,-17.29 17.29,-17.29 z m 89.08,-42.97 c -17.23,0 -31.2,-13.97 -31.2,-31.2 0,-17.23 13.97,-31.2 31.2,-31.2 17.22,0 31.19,13.97 31.19,31.2 0,17.23 -13.97,31.2 -31.19,31.2 z m -21.67,-31.2 c 0,11.97 9.7,21.67 21.67,21.67 11.97,0 21.66,-9.7 21.66,-21.67 0,-11.96 -9.69,-21.66 -21.66,-21.66 -11.97,0 -21.67,9.7 -21.67,21.66 m -283.77,-170.43 c 42.53,0 66.47,-34.17 66.47,-76.32 0,-42.15 -22.42,-76.31 -66.47,-76.31 -44.05,0 -66.47,34.16 -66.47,76.31 0,42.15 23.94,76.32 66.47,76.32 z m 42.92,-76.06 c 0,31.4 -13.19,56.6 -42.92,56.6 -29.73,0 -43.17,-25.2 -43.17,-56.6 0,-31.4 14.82,-56.61 43.42,-56.61 28.61,0 42.67,25.21 42.67,56.61 m -330.13,76.06 c 42.53,0 66.48,-34.17 66.48,-76.32 0,-42.15 -22.43,-76.31 -66.48,-76.31 -44.04,0 -66.47,34.16 -66.47,76.31 0,42.15 23.94,76.32 66.47,76.32 z m 42.92,-76.06 c 0,31.4 -13.18,56.6 -42.92,56.6 -29.73,0 -43.17,-25.2 -43.17,-56.6 0,-31.4 14.82,-56.61 43.43,-56.61 28.6,0 42.66,25.21 42.66,56.61 m 454.55,72.14 v -145.44 h -22.28 v 145.44 c 7.35,-0.64 15.07,-0.65 22.28,0 m -411.29,-139.46 v 212.39 h 22.87 v -75.79 c 57.02,23.29 101.28,-13.95 96.55,-71.98 -3.32,-42.15 -30.89,-72.06 -77.37,-73.87 -14.42,0 -32.8,2.85 -42.05,9.25 z m 22.87,114.97 v -100.59 c 47.03,-15.07 71.57,19.5 74.03,50.9 2.82,50.6 -34.15,68.8 -74.03,49.69 m -249.86,-120.94 v 145.82 h 18.48 l 3.31,-16.55 c 22.85,22.11 42.72,24.12 56.3,15.82 l -9.51,-21.99 c -14.59,5.45 -29.31,1.27 -46,-15.02 v -108.08 h -22.58 m 525.55,29.3 v 96.95 h -23.3 v 19.71 h 23.3 v 31.68 l 22.87,7.87 v -39.55 h 44.71 l -8.43,-19.71 h -36.28 v -92.95 c 0,-9.06 4.01,-16.22 13.54,-16.22 10.54,0 18.54,5.06 26.38,10.56 l 7.48,-16.47 c -13.51,-8.22 -22.33,-14.23 -39.69,-14.23 -22.57,0 -30.58,14.16 -30.58,32.36" />
  </g>
</svg>
