<svg width="249" height="60" viewBox="0 0 249 60" fill="none" xmlns="http://www.w3.org/2000/svg">
<g id="ust logo_c">
<g id="Group 263">
<path id="Vector" d="M51.4755 15.9812H49.7744V3.87976H46.5215V2.31299H54.7135V3.87976H51.4755V15.9812Z" fill="#003974"/>
<path id="Vector_2" d="M64.2955 7.81908V2.31299H65.9966V15.9812H64.2955V9.4157H57.8046V15.9812H56.1035V2.31299H57.8046V7.81908H64.2955Z" fill="#003974"/>
<path id="Vector_3" d="M68.6523 2.31299H75.9789V3.87976H70.3534V7.69971H75.8147V9.25156H70.3534V14.4145H75.9789V15.9812H68.6523V2.31299Z" fill="#003974"/>
<path id="Vector_4" d="M91.7499 7.81908V2.31299H93.451V15.9812H91.7499V9.4157H85.244V15.9812H83.543V2.31299H85.244V7.81908H91.7499Z" fill="#003974"/>
<path id="Vector_5" d="M111.102 1.67139L121.353 12.4001V2.31302H123.069V16.5334L112.803 5.78977V15.9813H111.102V1.67139Z" fill="#003974"/>
<path id="Vector_6" d="M152.898 2.31299H155.122L148.989 8.46072L155.241 15.9812H152.928L147.795 9.62461L147.109 10.2662V15.9812H145.393V2.31299H147.109V8.23689L152.898 2.31299Z" fill="#003974"/>
<path id="Vector_7" d="M171.463 1.67139L181.714 12.4001V2.31302H183.43V16.5334L173.164 5.78977V15.9813H171.463V1.67139Z" fill="#003974"/>
<path id="Vector_8" d="M59.9375 23.3965L70.1887 34.1401V24.053H71.8898V38.2734L61.6386 27.5298V37.7064H59.9375V23.3965Z" fill="#003974"/>
<path id="Vector_9" d="M76.1425 24.0537H74.4414V37.707H76.1425V24.0537Z" fill="#003974"/>
<path id="Vector_10" d="M83.3939 34.1557L87.4526 24.0537H89.3178L83.3939 38.4382L77.4551 24.0537H79.3203L83.3939 34.1557Z" fill="#003974"/>
<path id="Vector_11" d="M90.6621 24.0537H97.9886V25.6056H92.3632V29.4255H97.8245V30.9923H92.3632V36.1552H97.9886V37.707H90.6621V24.0537Z" fill="#003974"/>
<path id="Vector_12" d="M121.848 24.0537H120.146V37.707H121.848V24.0537Z" fill="#003974"/>
<path id="Vector_13" d="M128.263 37.707H126.562V25.6056H123.324V24.0537H131.501V25.6056H128.263V37.707Z" fill="#003974"/>
<path id="Vector_14" d="M131.621 24.0537H133.576L136.918 29.8881L140.276 24.0537H142.23L137.769 31.7682V37.707H136.068V31.7682L131.621 24.0537Z" fill="#003974"/>
<path id="Vector_15" d="M165.865 25.6056V29.4404H170.61V31.0072H165.865V37.707H164.164V24.0537H170.774V25.6056H165.865Z" fill="#003974"/>
<path id="Vector_16" d="M202.08 24.0537H200.379V37.707H202.08V24.0537Z" fill="#003974"/>
<path id="Vector_17" d="M204.812 24.0537H212.154V25.6056H206.529V29.4255H211.99V30.9923H206.529V36.1552H212.154V37.707H204.812V24.0537Z" fill="#003974"/>
<path id="Vector_18" d="M214.273 23.3965L224.525 34.1401V24.053H226.226V38.2734L215.975 27.5298V37.7064H214.273V23.3965Z" fill="#003974"/>
<path id="Vector_19" d="M240.996 24.0537H248.338V25.6056H242.697V29.4255H248.173V30.9923H242.697V36.1552H248.338V37.707H240.996V24.0537Z" fill="#003974"/>
<path id="Vector_20" d="M52.8645 48.9284L50.4323 54.4494H55.2818L52.8496 48.9284H52.8645ZM49.731 56.0162L48.1791 59.4482H46.3438L52.8645 45.2129L59.3853 59.4482H57.5499L55.9981 56.0162H49.731Z" fill="#003974"/>
<path id="Vector_21" d="M60.5488 45.123L70.8 55.8666V45.7796H72.5011V59.9999L62.2499 49.2563V59.4478H60.5488V45.123Z" fill="#003974"/>
<path id="Vector_22" d="M96.4352 59.4475H94.7341V47.3461H91.4961V45.7793H99.6732V47.3461H96.4352V59.4475Z" fill="#003974"/>
<path id="Vector_23" d="M101.197 45.7793H108.539V47.3461H102.898V51.166H108.375V52.7179H102.898V57.8808H108.539V59.4326H101.197V45.7793Z" fill="#003974"/>
<path id="Vector_24" d="M131.039 51.2854V45.7793H132.74V59.4475H131.039V52.882H124.533V59.4475H122.832V45.7793H124.533V51.2854H131.039Z" fill="#003974"/>
<path id="Vector_25" d="M135.217 45.123L145.468 55.8666V45.7796H147.169V59.9999L136.918 49.2563V59.4478H135.217V45.123Z" fill="#003974"/>
<path id="Vector_26" d="M166.672 57.8808H170.82V59.4475H164.971V45.7793H166.672V57.8808Z" fill="#003974"/>
<path id="Vector_27" d="M200.201 45.7793H202.156L205.498 51.6137L208.856 45.7793H210.81L206.364 53.4938V59.4326H204.648V53.4938L200.201 45.7793Z" fill="#003974"/>
<path id="Vector_28" d="M76.664 57.8808H77.2608C80.7376 57.8808 83.7518 56.5826 83.7518 52.6134C83.7518 48.6443 80.7525 47.3461 77.2608 47.3461H76.664V57.8808ZM74.9629 45.7793H77.7831C81.9612 45.7793 85.4528 47.9877 85.4528 52.5388C85.4528 57.0899 82.0507 59.4326 77.7383 59.4326H74.9629V45.7793Z" fill="#003974"/>
<path id="Vector_29" d="M160.644 30.873C160.644 27.8588 158.406 25.352 155.198 25.352C151.989 25.352 149.751 27.8738 149.751 30.873C149.751 33.8723 152.243 36.394 155.198 36.394C158.152 36.394 160.644 33.9916 160.644 30.873ZM162.345 30.873C162.345 34.9317 159.137 37.9906 155.183 37.9906C151.228 37.9906 148.035 34.9317 148.035 30.873C148.035 26.8143 151.273 23.7554 155.183 23.7554C159.092 23.7554 162.345 26.9635 162.345 30.873Z" fill="#003974"/>
<path id="Vector_30" d="M184.43 26.635C183.923 25.7844 183.281 25.3517 182.236 25.3517C181.147 25.3517 179.953 26.0978 179.953 27.2915C179.953 28.3659 180.998 28.918 181.863 29.2463L182.833 29.6342C184.773 30.3952 186.221 31.4696 186.221 33.7526C186.221 36.2296 184.296 38.0053 181.863 38.0053C179.655 38.0053 177.924 36.3788 177.641 34.1853L179.357 33.8272C179.342 35.3343 180.535 36.4236 181.998 36.4236C183.46 36.4236 184.52 35.1851 184.52 33.7675C184.52 32.35 183.341 31.6636 182.162 31.1712L181.222 30.7683C179.67 30.0968 178.252 29.2015 178.252 27.3065C178.252 25.098 180.207 23.77 182.281 23.77C183.803 23.77 185.057 24.5161 185.788 25.8441L184.43 26.6648V26.635Z" fill="#003974"/>
<path id="Vector_31" d="M198.216 26.6651C197.247 25.7996 195.904 25.3221 194.62 25.3221C191.561 25.3221 189.219 27.8738 189.219 30.9028C189.219 33.9319 191.546 36.4388 194.576 36.4388C195.918 36.4388 197.202 35.9315 198.216 35.0212V37.0357C197.172 37.6474 195.829 37.9906 194.635 37.9906C190.741 37.9906 187.518 34.8869 187.518 30.9476C187.518 27.0083 190.756 23.7554 194.784 23.7554C195.978 23.7554 197.202 24.0538 198.231 24.6805V26.6502L198.216 26.6651Z" fill="#003974"/>
<path id="Vector_32" d="M183.771 52.6137C183.771 49.5996 181.518 47.0927 178.325 47.0927C175.131 47.0927 172.863 49.6145 172.863 52.6137C172.863 55.613 175.37 58.1347 178.325 58.1347C181.279 58.1347 183.771 55.7324 183.771 52.6137ZM185.472 52.6137C185.472 56.6724 182.264 59.7314 178.325 59.7314C174.385 59.7314 171.162 56.6724 171.162 52.6137C171.162 48.555 174.4 45.4961 178.325 45.4961C182.249 45.4961 185.472 48.7043 185.472 52.6137Z" fill="#003974"/>
<path id="Vector_33" d="M199.739 52.5538V53.091C199.739 56.8364 197.098 59.7162 193.278 59.7162C189.458 59.7162 186.369 56.4185 186.369 52.6284C186.369 48.8383 189.533 45.481 193.457 45.481C195.576 45.481 197.68 46.4359 199.023 48.1221L197.829 49.2561C196.844 47.9132 195.203 47.0328 193.532 47.0328C190.473 47.0328 188.085 49.5098 188.085 52.5687C188.085 55.4337 190.443 58.1495 193.397 58.1495C195.516 58.1495 197.799 56.3141 197.874 54.0908H194.337V52.524H199.754L199.739 52.5538Z" fill="#003974"/>
<path id="Vector_34" d="M198.471 9.08752V9.6247C198.471 13.37 195.83 16.2499 192.01 16.2499C188.19 16.2499 185.102 12.9522 185.102 9.16213C185.102 5.37202 188.25 2.01465 192.189 2.01465C194.308 2.01465 196.412 2.96964 197.755 4.65578L196.561 5.80475C195.577 4.4618 193.935 3.58142 192.264 3.58142C189.205 3.58142 186.818 6.05842 186.818 9.11736C186.818 11.9823 189.175 14.6981 192.13 14.6981C194.249 14.6981 196.532 12.8627 196.606 10.6394H193.07V9.08752H198.486H198.471Z" fill="#003974"/>
<path id="Vector_35" d="M49.2675 24.0537V32.1114C49.2675 34.3347 49.939 36.4088 52.5652 36.4088C55.1914 36.4088 55.8629 34.3497 55.8629 32.1114V24.0537H57.5639V32.6934C57.5639 35.6926 55.6987 38.0055 52.5652 38.0055C49.4316 38.0055 47.5664 35.7075 47.5664 32.6934V24.0537H49.2675Z" fill="#003974"/>
<path id="Vector_36" d="M120.757 48.3909C119.787 47.5254 118.444 47.0479 117.146 47.0479C114.087 47.0479 111.744 49.5996 111.744 52.6287C111.744 55.6578 114.057 58.1646 117.101 58.1646C118.444 58.1646 119.727 57.6573 120.742 56.762V58.7764C119.697 59.3882 118.354 59.7314 117.161 59.7314C113.266 59.7314 110.043 56.6277 110.043 52.6883C110.043 48.749 113.281 45.4961 117.31 45.4961C118.504 45.4961 119.727 45.7796 120.757 46.4212V48.3909Z" fill="#003974"/>
<path id="Vector_37" d="M161.433 52.6137C161.433 49.5996 159.18 47.0927 155.987 47.0927C152.793 47.0927 150.54 49.6145 150.54 52.6137C150.54 55.613 153.032 58.1347 155.987 58.1347C158.941 58.1347 161.433 55.7324 161.433 52.6137ZM163.134 52.6137C163.134 56.6724 159.926 59.7314 155.987 59.7314C152.047 59.7314 148.824 56.6724 148.824 52.6137C148.824 48.555 152.062 45.4961 155.987 45.4961C159.911 45.4961 163.134 48.7043 163.134 52.6137Z" fill="#003974"/>
<path id="Vector_38" d="M101.986 30.5148H102.523C104.254 30.5148 106.149 30.1865 106.149 28.008C106.149 25.8294 104.12 25.5608 102.434 25.5608H101.986V30.5148ZM108.776 37.707H106.716L102.688 31.9324H101.986V37.707H100.285V24.0537H102.344C103.553 24.0537 104.866 24.0686 105.955 24.6953C107.089 25.3668 107.746 26.6501 107.746 27.9483C107.746 29.903 106.433 31.5295 104.463 31.7682L108.776 37.707Z" fill="#003974"/>
<path id="Vector_39" d="M116.356 26.635C115.848 25.7844 115.192 25.3517 114.162 25.3517C113.073 25.3517 111.879 26.0978 111.879 27.2915C111.879 28.3659 112.939 28.918 113.789 29.2463L114.774 29.6342C116.714 30.3952 118.161 31.4696 118.161 33.7526C118.161 36.2296 116.236 38.0053 113.789 38.0053C111.581 38.0053 109.865 36.3788 109.566 34.1853L111.282 33.8272C111.267 35.3343 112.461 36.4236 113.924 36.4236C115.386 36.4236 116.445 35.1851 116.445 33.7675C116.445 32.35 115.266 31.6636 114.088 31.1712L113.148 30.7683C111.596 30.0968 110.178 29.2015 110.178 27.3065C110.178 25.098 112.133 23.77 114.207 23.77C115.729 23.77 116.982 24.5161 117.714 25.8441L116.356 26.6648V26.635Z" fill="#003974"/>
<path id="Vector_40" d="M107.747 9.14742C107.747 6.13324 105.494 3.6264 102.301 3.6264C99.1078 3.6264 96.8547 6.14817 96.8547 9.14742C96.8547 12.1467 99.3615 14.6684 102.301 14.6684C105.241 14.6684 107.747 12.266 107.747 9.14742ZM109.449 9.14742C109.449 13.2061 106.24 16.2651 102.286 16.2651C98.3319 16.2651 95.1387 13.2061 95.1387 9.14742C95.1387 5.08873 98.3767 2.02979 102.286 2.02979C106.196 2.02979 109.449 5.23794 109.449 9.14742Z" fill="#003974"/>
<path id="Vector_41" d="M138.112 9.08752V9.6247C138.112 13.37 135.471 16.2499 131.651 16.2499C127.831 16.2499 124.742 12.9522 124.742 9.16213C124.742 5.37202 127.906 2.01465 131.83 2.01465C133.949 2.01465 136.053 2.96964 137.396 4.65578L136.202 5.80475C135.217 4.4618 133.576 3.58142 131.905 3.58142C128.846 3.58142 126.458 6.05842 126.458 9.11736C126.458 11.9823 128.816 14.6981 131.77 14.6981C133.889 14.6981 136.172 12.8627 136.247 10.6394H132.71V9.08752H138.127H138.112Z" fill="#003974"/>
<path id="Vector_42" d="M168.105 9.14742C168.105 6.13324 165.852 3.6264 162.658 3.6264C159.465 3.6264 157.197 6.14817 157.197 9.14742C157.197 12.1467 159.704 14.6684 162.658 14.6684C165.613 14.6684 168.105 12.266 168.105 9.14742ZM169.806 9.14742C169.806 13.2061 166.598 16.2651 162.658 16.2651C158.719 16.2651 155.496 13.2061 155.496 9.14742C155.496 5.08873 158.734 2.02979 162.658 2.02979C166.583 2.02979 169.806 5.23794 169.806 9.14742Z" fill="#003974"/>
<path id="Vector_43" d="M238.773 26.6651C237.803 25.7996 236.46 25.3221 235.177 25.3221C232.118 25.3221 229.775 27.8738 229.775 30.9028C229.775 33.9319 232.088 36.4388 235.132 36.4388C236.475 36.4388 237.758 35.9315 238.773 35.0212V37.0357C237.729 37.6474 236.386 37.9906 235.192 37.9906C231.297 37.9906 228.074 34.8869 228.074 30.9476C228.074 27.0083 231.312 23.7554 235.341 23.7554C236.535 23.7554 237.743 24.0538 238.773 24.6805V26.6502V26.6651Z" fill="#003974"/>
</g>
<g id="Group 262">
<path id="Vector_44" d="M27.3677 12.2505C27.6513 11.8923 27.7557 11.2656 27.7557 11.2656H10.8047C10.8047 11.2656 11.0136 11.9669 11.1927 12.2505H27.3677Z" fill="#A88337"/>
<path id="Vector_45" d="M26.3828 13.6831C26.6961 13.3995 27.0095 12.8325 27.0095 12.8325H11.5059C11.5059 12.8325 11.6849 13.2503 12.0729 13.6831H26.3828Z" fill="#A88337"/>
<path id="Vector_46" d="M25.1597 14.9817C25.5477 14.7728 25.8611 14.355 25.8611 14.355H12.5957C12.5957 14.355 12.9091 14.6982 13.2224 14.9817H25.1597Z" fill="#A88337"/>
<path id="Vector_47" d="M23.6221 16.2195C23.9952 16.0702 24.4279 15.7271 24.4279 15.7271H14.0723C14.0723 15.7271 14.0723 15.8017 14.8034 16.2195H23.6072H23.6221Z" fill="#A88337"/>
<path id="Vector_48" d="M15.9973 16.9805C15.9973 16.9805 17.0866 17.6221 19.2204 17.6221C21.3542 17.6221 22.727 16.9805 22.727 16.9805H15.9824H15.9973Z" fill="#A88337"/>
<path id="Vector_49" d="M15.817 18.4282C15.817 18.4282 17.1152 18.5028 17.8911 19.0997C18.6222 19.7413 19.1893 20.7858 19.1893 20.7858C19.1893 20.7858 19.6369 19.7712 20.383 19.2489C21.1291 18.6819 22.3079 18.4431 22.3079 18.4431H35.6777L38.3039 22.3377H26.3069C26.3069 22.3377 25.4713 22.3675 24.2029 23.1136C23.5315 23.4867 23.0391 24.1581 23.0391 24.1581C23.0391 24.1581 22.9346 24.4715 22.7854 24.6506C22.6511 24.8296 22.5466 24.9639 22.3676 25.0385C22.1885 25.1131 22.2184 25.0684 22.2184 25.0684H15.9662C15.9662 25.0684 15.7125 24.9639 15.5782 24.755C15.429 24.5461 15.5335 24.6207 15.3992 24.4417C15.2947 24.2626 15.041 23.8 14.101 23.1733C13.1161 22.5317 12.1761 22.472 12.1761 22.472H0L2.65606 18.4282H15.817Z" fill="#003974"/>
<path id="Vector_50" d="M6.37305 23.9344V43.8548C6.37305 43.8548 6.44766 45.6155 7.9249 48.003C9.40215 50.3905 11.5359 51.4798 11.5359 51.4798L13.2221 48.8535C13.2221 48.8535 11.7448 47.9732 10.6257 46.287C9.53644 44.6009 9.53644 43.1535 9.53644 43.1535V23.9194H6.37305V23.9344Z" fill="#003974"/>
<path id="Vector_51" d="M28.9777 23.8596V43.0937C28.9777 43.0937 28.7389 45.0186 27.8287 46.3914C26.9185 47.794 25.3965 48.9131 25.3965 48.9131L27.0229 51.5095C27.0229 51.5095 29.4701 49.7189 30.6788 47.8238C31.8725 45.9288 32.156 43.0788 32.156 43.0788V23.8447H28.9926L28.9777 23.8596Z" fill="#003974"/>
<path id="Vector_52" d="M1.35938 23.9346V43.9445C1.35938 43.9445 1.56828 47.0333 3.49317 50.2564C5.43299 53.4795 8.93958 55.7326 8.93958 55.7326L10.5959 53.1064C10.5959 53.1064 8.34272 51.9127 6.56704 49.1671C4.73167 46.3917 4.64214 43.855 4.64214 43.855V23.9346H1.35938Z" fill="#003974"/>
<path id="Vector_53" d="M15.8165 26.0386V47.1677C15.8165 47.1677 15.7419 47.2423 15.712 47.5556C15.6672 47.869 15.4583 48.0928 15.4583 48.0928L8.40039 59.7765H30.0219L22.9639 47.8391L22.755 47.302L22.6804 46.7349V26.0684H20.0542V47.5109C20.0542 47.5109 20.0542 47.8242 20.1587 48.063C20.2184 48.3166 20.3676 48.6897 20.3676 48.6897L24.7098 55.8521H13.6976L17.9801 48.7344C17.9801 48.7344 18.1293 48.4957 18.2338 48.1376C18.3084 47.8242 18.3382 47.5109 18.3382 47.5109V26.0386H15.8165Z" fill="#A88337"/>
<path id="Vector_54" d="M33.857 23.8594V43.5112C33.857 43.5112 33.8271 46.033 31.9619 48.9576C30.1116 51.8673 27.9629 53.1058 27.9629 53.1058L29.5446 55.7619C29.5446 55.7619 32.7677 53.7176 34.8119 50.4946C36.8114 47.2715 37.0651 43.5112 37.0651 43.5112V23.8594H33.8719H33.857Z" fill="#003974"/>
<path id="Vector_55" d="M10.6998 10.6988C10.6998 10.6988 9.6254 4.77493 13.9676 1.82044C13.9676 1.82044 15.9373 0 19.1305 0C22.5326 0 24.5023 1.7906 24.5023 1.7906C29.2325 5.26735 27.8448 10.6988 27.8448 10.6988H10.6998Z" fill="#A88337"/>
<path id="Vector_56" d="M27.3677 12.2505C27.6513 11.8923 27.7557 11.2656 27.7557 11.2656H10.8047C10.8047 11.2656 11.0136 11.9669 11.1927 12.2505H27.3677Z" fill="#A88337"/>
<path id="Vector_57" d="M26.3828 13.6831C26.6961 13.3995 27.0095 12.8325 27.0095 12.8325H11.5059C11.5059 12.8325 11.6849 13.2503 12.0729 13.6831H26.3828Z" fill="#A88337"/>
<path id="Vector_58" d="M25.1597 14.9817C25.5477 14.7728 25.8611 14.355 25.8611 14.355H12.5957C12.5957 14.355 12.9091 14.6982 13.2224 14.9817H25.1597Z" fill="#A88337"/>
<path id="Vector_59" d="M23.6221 16.2195C23.9952 16.0702 24.4279 15.7271 24.4279 15.7271H14.0723C14.0723 15.7271 14.0723 15.8017 14.8034 16.2195H23.6072H23.6221Z" fill="#A88337"/>
<path id="Vector_60" d="M15.9973 16.9805C15.9973 16.9805 17.0866 17.6221 19.2204 17.6221C21.3542 17.6221 22.727 16.9805 22.727 16.9805H15.9824H15.9973Z" fill="#A88337"/>
<path id="Vector_61" d="M15.817 18.4282C15.817 18.4282 17.1152 18.5028 17.8911 19.0997C18.6222 19.7413 19.1893 20.7858 19.1893 20.7858C19.1893 20.7858 19.6369 19.7712 20.383 19.2489C21.1291 18.6819 22.3079 18.4431 22.3079 18.4431H35.6777L38.3039 22.3377H26.3069C26.3069 22.3377 25.4713 22.3675 24.2029 23.1136C23.5315 23.4867 23.0391 24.1581 23.0391 24.1581C23.0391 24.1581 22.9346 24.4715 22.7854 24.6506C22.6511 24.8296 22.5466 24.9639 22.3676 25.0385C22.1885 25.1131 22.2184 25.0684 22.2184 25.0684H15.9662C15.9662 25.0684 15.7125 24.9639 15.5782 24.755C15.429 24.5461 15.5335 24.6207 15.3992 24.4417C15.2947 24.2626 15.041 23.8 14.101 23.1733C13.1161 22.5317 12.1761 22.472 12.1761 22.472H0L2.65606 18.4282H15.817Z" fill="#003974"/>
<path id="Vector_62" d="M6.37305 23.9344V43.8548C6.37305 43.8548 6.44766 45.6155 7.9249 48.003C9.40215 50.3905 11.5359 51.4798 11.5359 51.4798L13.2221 48.8535C13.2221 48.8535 11.7448 47.9732 10.6257 46.287C9.53644 44.6009 9.53644 43.1535 9.53644 43.1535V23.9194H6.37305V23.9344Z" fill="#003974"/>
<path id="Vector_63" d="M28.9777 23.8596V43.0937C28.9777 43.0937 28.7389 45.0186 27.8287 46.3914C26.9185 47.794 25.3965 48.9131 25.3965 48.9131L27.0229 51.5095C27.0229 51.5095 29.4701 49.7189 30.6788 47.8238C31.8725 45.9288 32.156 43.0788 32.156 43.0788V23.8447H28.9926L28.9777 23.8596Z" fill="#003974"/>
<path id="Vector_64" d="M1.35938 23.9346V43.9445C1.35938 43.9445 1.56828 47.0333 3.49317 50.2564C5.43299 53.4795 8.93958 55.7326 8.93958 55.7326L10.5959 53.1064C10.5959 53.1064 8.34272 51.9127 6.56704 49.1671C4.73167 46.3917 4.64214 43.855 4.64214 43.855V23.9346H1.35938Z" fill="#003974"/>
<path id="Vector_65" d="M15.8165 26.0386V47.1677C15.8165 47.1677 15.7419 47.2423 15.712 47.5556C15.6672 47.869 15.4583 48.0928 15.4583 48.0928L8.40039 59.7765H30.0219L22.9639 47.8391L22.755 47.302L22.6804 46.7349V26.0684H20.0542V47.5109C20.0542 47.5109 20.0542 47.8242 20.1587 48.063C20.2184 48.3166 20.3676 48.6897 20.3676 48.6897L24.7098 55.8521H13.6976L17.9801 48.7344C17.9801 48.7344 18.1293 48.4957 18.2338 48.1376C18.3084 47.8242 18.3382 47.5109 18.3382 47.5109V26.0386H15.8165Z" fill="#A88337"/>
<path id="Vector_66" d="M33.857 23.8594V43.5112C33.857 43.5112 33.8271 46.033 31.9619 48.9576C30.1116 51.8673 27.9629 53.1058 27.9629 53.1058L29.5446 55.7619C29.5446 55.7619 32.7677 53.7176 34.8119 50.4946C36.8114 47.2715 37.0651 43.5112 37.0651 43.5112V23.8594H33.8719H33.857Z" fill="#003974"/>
<path id="Vector_67" d="M10.6998 10.6988C10.6998 10.6988 9.6254 4.77493 13.9676 1.82044C13.9676 1.82044 15.9373 0 19.1305 0C22.5326 0 24.5023 1.7906 24.5023 1.7906C29.2325 5.26735 27.8448 10.6988 27.8448 10.6988H10.6998Z" fill="#A88337"/>
</g>
</g>
</svg>
